<?xml version="1.0" encoding="UTF-8"?>
<!-- Generator: Adobe Illustrator 18.0.0, SVG Export Plug-In . SVG Version: 6.00 Build 0)  -->
<!DOCTYPE svg PUBLIC "-//W3C//DTD SVG 1.1//EN" "http://www.w3.org/Graphics/SVG/1.1/DTD/svg11.dtd">
<svg version="1.1" id="Слой_2" xmlns="http://www.w3.org/2000/svg" xmlns:xlink="http://www.w3.org/1999/xlink" x="0px" y="0px" viewBox="243 134 1102 1199" enable-background="new 243 134 1102 1199" xml:space="preserve">
<path fill="#000000" d="M1331.2,1052.1c-18.5-13.5-58.4-39.2-58.4-39.2  s-2.9-5.7-4.9-8.6s-67-54.9-70.5-59.9s-3.5-4.9-3.5-4.9s1.4-2.1-5.7-7.8c-7.2-5.7-69.1-55.6-74.8-58.4c-5.7-2.9-14.3-7.8-14.3-7.8  s0-9.2-4.3-15c-4.3-5.7-44.3-44.9-58.4-54.9c-14.3-10-52.7-38.5-74.8-47.1c-22.1-8.6-34.2-7.2-34.2-7.2l-3.5-4.3h-15.7l-2.9-9.2  c0,0-15.6-0.7-17.8-3.5c-2.2-2.9-1.4-12.9-1.4-12.9h10l1.4-6.4h9.2l5.7-4.3c0,0,10,0,46.3-17c36.3-17,42-27.9,48.4-32  c6.4-4.2,22.1-7.2,22.1-7.2v-8.6l7.8-4.9v-4.3c0,0,33.4-7.8,54.9-10.7c21.3-2.9,42-4.3,47.8-3.5c5.7,0.8,13.5,4.7,16.4-0.1  c2.9-4.8,6.4-8.3,6.4-8.3s23.6,2.9,34.9,6.4c11.3,3.5,30.7,2.9,34.2,2.1c3.5-0.7,10-8.6,10-8.6s41.4-2.9,55.6-9.2  c14.3-6.4,25.6-19.9,0-14.3c-25.6,5.7-53.5,13.5-53.5,13.5s-3.5-4.3-8.6-4.3c-4.9,0-40.6,0-57-4.3c-16.4-4.3-19.9-2.1-19.9-2.1  s-4.3-4.2-9.2-4.2c-4.9,0-51,5.6-80,7.8c-29,2.1-51.8,14.3-51.8,14.3l-11.5-0.7c0,0-33.4,24.2-56.4,34.9  c-22.8,10.7-53.5,29.9-53.5,29.9l-3.5-1.4l-6.4,7.8l-4.9-0.7l-6.4,5.7l-10.7-15l12.9-12.1l1.4-7.2l7.8-6.4c0,0,23.6-25.5,37.7-57  c14.2-31.5,21.3-48.5,23.6-64.2c2.1-15.7,3.5-30.7,7.2-33.4c3.5-2.9-4.9-7.8-4.9-7.8s17.8-45.7,22.8-53.5c4.9-7.8,0.7-12.9,0.7-12.9  s22.1-52.7,29.9-67.7c7.8-15,9.2-22.1,8.6-25.6c-0.7-3.5-0.7-3.5-0.7-3.5s27.9-52.1,31.4-64.2c3.5-12.1,3.5-12.1,3.5-12.1  s14.3-46.3,15.6-64.8c1.4-18.5-4.3-40-10.7-11.5s-18.5,73.4-18.5,73.4l-5.7-2.9c0,0-4.9,25-15.6,41.4S990,299.2,990,299.2  s-7.8-7.8-13.5,12.1c-5.7,19.9-19.3,57.8-21.3,64.8c-2.1,7.2-4.9,17.8-4.9,17.8s-10-18.5-12.9-0.7s-12.1,34.9-12.1,44.3  c0,9.2-6.4,24.2-6.4,24.2l-7.8-1.4c0,0-8.6,55.6-12.1,71.3c-3.5,15.7-17.8,42-22.1,47.1c-4.3,4.9-4.3,4.9-4.3,4.9  s25.6-53.5,20.7-101.9c-4.9-48.4-25.6-68.5-38.5-77.7s-38.5-23.6-46.3-24.2c-7.8-0.7-11.3-2.1-11.3-2.1h-2.2c0,0-3.5,1.4-11.3,2.1  c-7.8,0.7-33.4,15-46.3,24.2s-33.4,29.3-38.5,77.7c-4.9,48.4,20.7,101.9,20.7,101.9s0,0-4.3-4.9c-4.3-4.9-18.5-31.4-22.1-47.1  c-3.5-15.7-12.1-71.3-12.1-71.3l-7.8,1.4c0,0-6.4-15-6.4-24.2s-9.2-26.4-12.1-44.3c-2.9-17.8-12.9,0.7-12.9,0.7s-2.9-10.7-4.9-17.8  c-2.1-7.2-15.7-44.9-21.3-64.8c-5.7-19.9-13.5-12.1-13.5-12.1s-10-12.9-20.7-29.3s-15.7-41.4-15.7-41.4l-5.7,2.9  c0,0-12.1-44.9-18.5-73.4s-12.1-7.2-10.7,11.5c1.4,18.5,15.7,64.8,15.7,64.8s0,0,3.5,12.1s31.4,64.2,31.4,64.2s0,0-0.7,3.5  c-0.7,3.5,0.7,10.7,8.6,25.6s29.9,67.7,29.9,67.7s-4.3,4.9,0.7,12.9c4.9,7.8,22.8,53.5,22.8,53.5s-8.6,4.9-4.9,7.8  c3.5,2.9,4.9,17.8,7.2,33.4c2.1,15.7,9.2,32.8,23.6,64.2c14.3,31.4,37.7,57,37.7,57l7.8,6.4l1.4,7.2l12.9,12.1l-10.7,15l-6.4-5.7  l-4.9,0.7l-6.4-7.8l-3.5,1.4c0,0-30.7-19.3-53.5-29.9c-22.8-10.7-56.4-34.9-56.4-34.9l-11.5,0.7c0,0-22.8-12.1-51.8-14.3  c-29-2.1-75.1-7.8-80-7.8s-9.2,4.2-9.2,4.2s-3.5-2.1-19.9,2.1s-52.1,4.3-57,4.3s-8.6,4.3-8.6,4.3s-27.9-7.8-53.5-13.5  c-25.6-5.7-14.3,7.8,0,14.3c14.3,6.4,55.6,9.2,55.6,9.2s6.4,7.8,10,8.6c3.6,0.8,22.8,1.4,34.2-2.1c11.5-3.5,34.9-6.4,34.9-6.4  s3.5,3.5,6.4,8.3s10.7,0.9,16.4,0.1c5.7-0.7,26.4,0.7,47.8,3.5c21.3,2.9,54.9,10.7,54.9,10.7v4.3l7.8,4.9v8.6c0,0,15.7,2.9,22.1,7.2  c6.4,4.3,12.1,15,48.4,32s46.3,17,46.3,17l5.7,4.3h9.2l1.4,6.4h10c0,0,0.7,10-1.4,12.9c-2.1,2.9-17.8,3.5-17.8,3.5l-2.9,9.2h-16.4  l-3.5,4.3c0,0-12.1-1.4-34.2,7.2c-22.1,8.6-60.7,37.1-74.8,47.1c-14.3,10-54.1,49.2-58.4,54.9c-4.3,5.7-4.3,15-4.3,15  s-8.6,4.9-14.3,7.8c-5.7,2.9-67.7,52.7-74.8,58.4c-7.2,5.7-5.7,7.8-5.7,7.8s0,0-3.5,4.9s-68.5,57-70.5,59.9  c-2.1,2.9-4.9,8.6-4.9,8.6s-40.1,25.6-58.6,39.2c-18.5,13.5-7.2,19.3,9.2,9.2c16.4-10,57.8-37.7,57.8-37.7l8.6-0.7  c0,0,4.3-5.7,12.1-12.1c7.8-6.4,43.5-35.7,49.2-39.2c5.7-3.5,11.5-14.3,11.5-14.3l12.1-0.7c0,0,4.9-4.3,20.7-19.3  c15.7-15,65.6-43.5,72-47.8c6.4-4.3,7.2-7.8,7.2-7.8s7.8-4.3,10-7.8c2.1-3.5,22.1-34.2,27.9-35.7c5.7-1.4,19.3-4.9,19.3-4.9  s3.5-2.1,7.2-5.7c3.5-3.5,19.3-15.7,34.2-20.7c15-4.9,62.1-29.3,62.1-29.3l4.3,4.3l11.5-4.3l-5.7,5.7l-2.1,7.2l-13.5,4.9  c0,0,6.4,2.1,4.3,3.5c-2.1,1.4-19.9,12.1-30.7,25c-10.7,12.9-22.8,47.8-37.2,86.3c-14.3,38.5-31.2,84.9-31.2,84.9l2.9,3.5  c0,0-14.3,25-20.7,36.3c-6.4,11.5-45.7,83.4-45.7,83.4l1.4,7.8c0,0,0,0-1.4,2.1c-1.4,2.1-12.1,25-18.5,39.2  c-6.4,14.3-32.8,63.5-32.8,63.5l3.5,4.3c0,0-17.8,29.9-29.3,52.1c-11.5,22.1-13.5,39.2-10,39.2s17.8-16.4,24.2-34.2  s26.4-50.6,26.4-50.6h4.9c0,0,15.7-32.8,20.7-46.3c4.9-13.5,27.9-49.8,27.9-49.8s1.4-7.8,4.3-10c2.9-2.1,6.4,0,6.4,0  s4.9-7.2,9.2-13.5c4.3-6.4,30.7-56.4,46.3-83.4c15.7-27.1,15.7-27.9,15.7-27.9h6.4c0,0,1.4-3.5,3.5-17.8c2.1-14.3,19.3-57,19.3-57  l10.7,3.5c0,0,9.2-50.6,22.8-75.6c13.5-25,24.2-27.9,24.2-27.9s0,6.4,0,13.5c0,7.2,9.2,42,12.9,50.6s13.5,15,26.4,10  c12.9-4.9,22.8-18.5,19.5-31.4c-3.4-12.9-21,5.7-25.1,6.4s-3.5-7.8-6.4-31.2c-2.9-23.4-2.1-17.2,2.9-21.5s5.7,0,5.7,0  s7.2,19.3,10,29.3c2.9,10,13.5,15.7,27.9,15.7s18.5-15.7,18.5-15.7V861h2.2v0.7c0,0,4.3,15.7,18.5,15.7c14.3,0,25-5.7,27.9-15.7  c2.9-10,10-29.3,10-29.3s0.7-4.3,5.7,0c4.9,4.3,5.7-2,2.9,21.5c-2.9,23.4-2.1,32-6.4,31.2c-4.3-0.7-21.9-19.3-25.1-6.4  c-3.4,12.9,6.6,26.4,19.5,31.4c12.9,4.9,22.8-1.4,26.4-10c3.5-8.6,12.9-43.5,12.9-50.6c0-7.2,0-13.5,0-13.5s10.7,2.9,24.2,27.9  c13.5,25,22.8,75.6,22.8,75.6l10.7-3.5c0,0,17,42.8,19.3,57c2.1,14.3,3.5,17.8,3.5,17.8h6.4c0,0,0,0.7,15.6,27.9  c15.7,27.1,42,77,46.3,83.4s9.2,13.5,9.2,13.5s3.5-2.1,6.4,0c2.9,2.1,4.3,10,4.3,10s22.8,36.3,27.9,49.8  c4.9,13.5,20.7,46.3,20.7,46.3h4.9c0,0,19.9,32.8,26.4,50.6c6.4,17.8,20.7,34.2,24.2,34.2c3.5,0,1.4-17-10-39.2  c-11.5-22.1-29.3-52.1-29.3-52.1l3.5-4.3c0,0-26.4-49.2-32.8-63.5c-6.4-14.3-17-37.1-18.5-39.2c-1.4-2.1-1.4-2.1-1.4-2.1l1.4-7.8  c0,0-39.2-72-45.7-83.4c-6.4-11.5-20.7-36.3-20.7-36.3l2.9-3.5c0,0-16.9-46.3-31.2-84.9S953.8,837,943,824.1  c-10.7-12.9-28.5-23.6-30.7-25c-2.2-1.4,4.3-3.5,4.3-3.5l-13.5-4.9l-2.1-7.2l-5.7-5.7l11.5,4.3l4.3-4.3c0,0,47.1,24.2,62.1,29.3  c15,4.9,30.7,17,34.2,20.7c3.5,3.5,7.2,5.7,7.2,5.7s13.5,3.5,19.3,4.9c5.7,1.4,25.6,32,27.9,35.7c2.2,3.6,10,7.8,10,7.8  s0.7,3.5,7.2,7.8c6.4,4.3,56.4,32.8,72,47.8c15.6,15,20.7,19.3,20.7,19.3l12.1,0.7c0,0,5.7,10.7,11.5,14.3  c5.7,3.5,41.4,32.8,49.2,39.2s12.1,12.1,12.1,12.1l8.6,0.7c0,0,41.4,27.9,57.8,37.7C1338.4,1071.4,1349.7,1065.6,1331.2,1052.1z"/>
</svg>
