<?xml version="1.0" encoding="UTF-8" standalone="no"?>
<!-- Generator: Adobe Illustrator 18.0.0, SVG Export Plug-In . SVG Version: 6.00 Build 0)  -->

<svg
   xmlns:dc="http://purl.org/dc/elements/1.1/"
   xmlns:cc="http://creativecommons.org/ns#"
   xmlns:rdf="http://www.w3.org/1999/02/22-rdf-syntax-ns#"
   xmlns:svg="http://www.w3.org/2000/svg"
   xmlns="http://www.w3.org/2000/svg"
   xmlns:sodipodi="http://sodipodi.sourceforge.net/DTD/sodipodi-0.dtd"
   xmlns:inkscape="http://www.inkscape.org/namespaces/inkscape"
   version="1.1"
   id="Слой_2"
   x="0px"
   y="0px"
   viewBox="243 134 1102 1199"
   enable-background="new 243 134 1102 1199"
   xml:space="preserve"
   sodipodi:docname="spi2_G.svg"
   inkscape:version="0.92.5 (2060ec1f9f, 2020-04-08)"><metadata
   id="metadata9"><rdf:RDF><cc:Work
       rdf:about=""><dc:format>image/svg+xml</dc:format><dc:type
         rdf:resource="http://purl.org/dc/dcmitype/StillImage" /><dc:title></dc:title></cc:Work></rdf:RDF></metadata><defs
   id="defs7" /><sodipodi:namedview
   pagecolor="#ffffff"
   bordercolor="#666666"
   borderopacity="1"
   objecttolerance="10"
   gridtolerance="10"
   guidetolerance="10"
   inkscape:pageopacity="0"
   inkscape:pageshadow="2"
   inkscape:window-width="1724"
   inkscape:window-height="1156"
   id="namedview5"
   showgrid="false"
   inkscape:zoom="0.55672127"
   inkscape:cx="531.8853"
   inkscape:cy="549.52447"
   inkscape:window-x="192"
   inkscape:window-y="20"
   inkscape:window-maximized="0"
   inkscape:current-layer="Слой_2" />
<path
   d="M1331.2,1052.1c-18.5-13.5-58.4-39.2-58.4-39.2  s-2.9-5.7-4.9-8.6s-67-54.9-70.5-59.9s-3.5-4.9-3.5-4.9s1.4-2.1-5.7-7.8c-7.2-5.7-69.1-55.6-74.8-58.4c-5.7-2.9-14.3-7.8-14.3-7.8  s0-9.2-4.3-15c-4.3-5.7-44.3-44.9-58.4-54.9c-14.3-10-52.7-38.5-74.8-47.1c-22.1-8.6-34.2-7.2-34.2-7.2l-3.5-4.3h-15.7l-2.9-9.2  c0,0-15.6-0.7-17.8-3.5c-2.2-2.9-1.4-12.9-1.4-12.9h10l1.4-6.4h9.2l5.7-4.3c0,0,10,0,46.3-17c36.3-17,42-27.9,48.4-32  c6.4-4.2,22.1-7.2,22.1-7.2v-8.6l7.8-4.9v-4.3c0,0,33.4-7.8,54.9-10.7c21.3-2.9,42-4.3,47.8-3.5c5.7,0.8,13.5,4.7,16.4-0.1  c2.9-4.8,6.4-8.3,6.4-8.3s23.6,2.9,34.9,6.4c11.3,3.5,30.7,2.9,34.2,2.1c3.5-0.7,10-8.6,10-8.6s41.4-2.9,55.6-9.2  c14.3-6.4,25.6-19.9,0-14.3c-25.6,5.7-53.5,13.5-53.5,13.5s-3.5-4.3-8.6-4.3c-4.9,0-40.6,0-57-4.3c-16.4-4.3-19.9-2.1-19.9-2.1  s-4.3-4.2-9.2-4.2c-4.9,0-51,5.6-80,7.8c-29,2.1-51.8,14.3-51.8,14.3l-11.5-0.7c0,0-33.4,24.2-56.4,34.9  c-22.8,10.7-53.5,29.9-53.5,29.9l-3.5-1.4l-6.4,7.8l-4.9-0.7l-6.4,5.7l-10.7-15l12.9-12.1l1.4-7.2l7.8-6.4c0,0,23.6-25.5,37.7-57  c14.2-31.5,21.3-48.5,23.6-64.2c2.1-15.7,3.5-30.7,7.2-33.4c3.5-2.9-4.9-7.8-4.9-7.8s17.8-45.7,22.8-53.5c4.9-7.8,0.7-12.9,0.7-12.9  s22.1-52.7,29.9-67.7c7.8-15,9.2-22.1,8.6-25.6c-0.7-3.5-0.7-3.5-0.7-3.5s27.9-52.1,31.4-64.2c3.5-12.1,3.5-12.1,3.5-12.1  s14.3-46.3,15.6-64.8c1.4-18.5-4.3-40-10.7-11.5s-18.5,73.4-18.5,73.4l-5.7-2.9c0,0-4.9,25-15.6,41.4S990,299.2,990,299.2  s-7.8-7.8-13.5,12.1c-5.7,19.9-19.3,57.8-21.3,64.8c-2.1,7.2-4.9,17.8-4.9,17.8s-10-18.5-12.9-0.7s-12.1,34.9-12.1,44.3  c0,9.2-6.4,24.2-6.4,24.2l-7.8-1.4c0,0-8.6,55.6-12.1,71.3c-3.5,15.7-17.8,42-22.1,47.1c-4.3,4.9-4.3,4.9-4.3,4.9  s25.6-53.5,20.7-101.9c-4.9-48.4-25.6-68.5-38.5-77.7s-38.5-23.6-46.3-24.2c-7.8-0.7-11.3-2.1-11.3-2.1h-2.2c0,0-3.5,1.4-11.3,2.1  c-7.8,0.7-33.4,15-46.3,24.2s-33.4,29.3-38.5,77.7c-4.9,48.4,20.7,101.9,20.7,101.9s0,0-4.3-4.9c-4.3-4.9-18.5-31.4-22.1-47.1  c-3.5-15.7-12.1-71.3-12.1-71.3l-7.8,1.4c0,0-6.4-15-6.4-24.2s-9.2-26.4-12.1-44.3c-2.9-17.8-12.9,0.7-12.9,0.7s-2.9-10.7-4.9-17.8  c-2.1-7.2-15.7-44.9-21.3-64.8c-5.7-19.9-13.5-12.1-13.5-12.1s-10-12.9-20.7-29.3s-15.7-41.4-15.7-41.4l-5.7,2.9  c0,0-12.1-44.9-18.5-73.4s-12.1-7.2-10.7,11.5c1.4,18.5,15.7,64.8,15.7,64.8s0,0,3.5,12.1s31.4,64.2,31.4,64.2s0,0-0.7,3.5  c-0.7,3.5,0.7,10.7,8.6,25.6s29.9,67.7,29.9,67.7s-4.3,4.9,0.7,12.9c4.9,7.8,22.8,53.5,22.8,53.5s-8.6,4.9-4.9,7.8  c3.5,2.9,4.9,17.8,7.2,33.4c2.1,15.7,9.2,32.8,23.6,64.2c14.3,31.4,37.7,57,37.7,57l7.8,6.4l1.4,7.2l12.9,12.1l-10.7,15l-6.4-5.7  l-4.9,0.7l-6.4-7.8l-3.5,1.4c0,0-30.7-19.3-53.5-29.9c-22.8-10.7-56.4-34.9-56.4-34.9l-11.5,0.7c0,0-22.8-12.1-51.8-14.3  c-29-2.1-75.1-7.8-80-7.8s-9.2,4.2-9.2,4.2s-3.5-2.1-19.9,2.1s-52.1,4.3-57,4.3s-8.6,4.3-8.6,4.3s-27.9-7.8-53.5-13.5  c-25.6-5.7-14.3,7.8,0,14.3c14.3,6.4,55.6,9.2,55.6,9.2s6.4,7.8,10,8.6c3.6,0.8,22.8,1.4,34.2-2.1c11.5-3.5,34.9-6.4,34.9-6.4  s3.5,3.5,6.4,8.3s10.7,0.9,16.4,0.1c5.7-0.7,26.4,0.7,47.8,3.5c21.3,2.9,54.9,10.7,54.9,10.7v4.3l7.8,4.9v8.6c0,0,15.7,2.9,22.1,7.2  c6.4,4.3,12.1,15,48.4,32s46.3,17,46.3,17l5.7,4.3h9.2l1.4,6.4h10c0,0,0.7,10-1.4,12.9c-2.1,2.9-17.8,3.5-17.8,3.5l-2.9,9.2h-16.4  l-3.5,4.3c0,0-12.1-1.4-34.2,7.2c-22.1,8.6-60.7,37.1-74.8,47.1c-14.3,10-54.1,49.2-58.4,54.9c-4.3,5.7-4.3,15-4.3,15  s-8.6,4.9-14.3,7.8c-5.7,2.9-67.7,52.7-74.8,58.4c-7.2,5.7-5.7,7.8-5.7,7.8s0,0-3.5,4.9s-68.5,57-70.5,59.9  c-2.1,2.9-4.9,8.6-4.9,8.6s-40.1,25.6-58.6,39.2c-18.5,13.5-7.2,19.3,9.2,9.2c16.4-10,57.8-37.7,57.8-37.7l8.6-0.7  c0,0,4.3-5.7,12.1-12.1c7.8-6.4,43.5-35.7,49.2-39.2c5.7-3.5,11.5-14.3,11.5-14.3l12.1-0.7c0,0,4.9-4.3,20.7-19.3  c15.7-15,65.6-43.5,72-47.8c6.4-4.3,7.2-7.8,7.2-7.8s7.8-4.3,10-7.8c2.1-3.5,22.1-34.2,27.9-35.7c5.7-1.4,19.3-4.9,19.3-4.9  s3.5-2.1,7.2-5.7c3.5-3.5,19.3-15.7,34.2-20.7c15-4.9,62.1-29.3,62.1-29.3l4.3,4.3l11.5-4.3l-5.7,5.7l-2.1,7.2l-13.5,4.9  c0,0,6.4,2.1,4.3,3.5c-2.1,1.4-19.9,12.1-30.7,25c-10.7,12.9-22.8,47.8-37.2,86.3c-14.3,38.5-31.2,84.9-31.2,84.9l2.9,3.5  c0,0-14.3,25-20.7,36.3c-6.4,11.5-45.7,83.4-45.7,83.4l1.4,7.8c0,0,0,0-1.4,2.1c-1.4,2.1-12.1,25-18.5,39.2  c-6.4,14.3-32.8,63.5-32.8,63.5l3.5,4.3c0,0-17.8,29.9-29.3,52.1c-11.5,22.1-13.5,39.2-10,39.2s17.8-16.4,24.2-34.2  s26.4-50.6,26.4-50.6h4.9c0,0,15.7-32.8,20.7-46.3c4.9-13.5,27.9-49.8,27.9-49.8s1.4-7.8,4.3-10c2.9-2.1,6.4,0,6.4,0  s4.9-7.2,9.2-13.5c4.3-6.4,30.7-56.4,46.3-83.4c15.7-27.1,15.7-27.9,15.7-27.9h6.4c0,0,1.4-3.5,3.5-17.8c2.1-14.3,19.3-57,19.3-57  l10.7,3.5c0,0,9.2-50.6,22.8-75.6c13.5-25,24.2-27.9,24.2-27.9s0,6.4,0,13.5c0,7.2,9.2,42,12.9,50.6s13.5,15,26.4,10  c12.9-4.9,22.8-18.5,19.5-31.4c-3.4-12.9-21,5.7-25.1,6.4s-3.5-7.8-6.4-31.2c-2.9-23.4-2.1-17.2,2.9-21.5s5.7,0,5.7,0  s7.2,19.3,10,29.3c2.9,10,13.5,15.7,27.9,15.7s18.5-15.7,18.5-15.7V861h2.2v0.7c0,0,4.3,15.7,18.5,15.7c14.3,0,25-5.7,27.9-15.7  c2.9-10,10-29.3,10-29.3s0.7-4.3,5.7,0c4.9,4.3,5.7-2,2.9,21.5c-2.9,23.4-2.1,32-6.4,31.2c-4.3-0.7-21.9-19.3-25.1-6.4  c-3.4,12.9,6.6,26.4,19.5,31.4c12.9,4.9,22.8-1.4,26.4-10c3.5-8.6,12.9-43.5,12.9-50.6c0-7.2,0-13.5,0-13.5s10.7,2.9,24.2,27.9  c13.5,25,22.8,75.6,22.8,75.6l10.7-3.5c0,0,17,42.8,19.3,57c2.1,14.3,3.5,17.8,3.5,17.8h6.4c0,0,0,0.7,15.6,27.9  c15.7,27.1,42,77,46.3,83.4s9.2,13.5,9.2,13.5s3.5-2.1,6.4,0c2.9,2.1,4.3,10,4.3,10s22.8,36.3,27.9,49.8  c4.9,13.5,20.7,46.3,20.7,46.3h4.9c0,0,19.9,32.8,26.4,50.6c6.4,17.8,20.7,34.2,24.2,34.2c3.5,0,1.4-17-10-39.2  c-11.5-22.1-29.3-52.1-29.3-52.1l3.5-4.3c0,0-26.4-49.2-32.8-63.5c-6.4-14.3-17-37.1-18.5-39.2c-1.4-2.1-1.4-2.1-1.4-2.1l1.4-7.8  c0,0-39.2-72-45.7-83.4c-6.4-11.5-20.7-36.3-20.7-36.3l2.9-3.5c0,0-16.9-46.3-31.2-84.9S953.8,837,943,824.1  c-10.7-12.9-28.5-23.6-30.7-25c-2.2-1.4,4.3-3.5,4.3-3.5l-13.5-4.9l-2.1-7.2l-5.7-5.7l11.5,4.3l4.3-4.3c0,0,47.1,24.2,62.1,29.3  c15,4.9,30.7,17,34.2,20.7c3.5,3.5,7.2,5.7,7.2,5.7s13.5,3.5,19.3,4.9c5.7,1.4,25.6,32,27.9,35.7c2.2,3.6,10,7.8,10,7.8  s0.7,3.5,7.2,7.8c6.4,4.3,56.4,32.8,72,47.8c15.6,15,20.7,19.3,20.7,19.3l12.1,0.7c0,0,5.7,10.7,11.5,14.3  c5.7,3.5,41.4,32.8,49.2,39.2s12.1,12.1,12.1,12.1l8.6,0.7c0,0,41.4,27.9,57.8,37.7C1338.4,1071.4,1349.7,1065.6,1331.2,1052.1z"
   id="path2"
   fill="#20b020" />
<path
   style="color:#000000;font-style:normal;font-variant:normal;font-weight:normal;font-stretch:normal;font-size:medium;line-height:normal;font-family:sans-serif;font-variant-ligatures:normal;font-variant-position:normal;font-variant-caps:normal;font-variant-numeric:normal;font-variant-alternates:normal;font-feature-settings:normal;text-indent:0;text-align:start;text-decoration:none;text-decoration-line:none;text-decoration-style:solid;text-decoration-color:#000000;letter-spacing:normal;word-spacing:normal;text-transform:none;writing-mode:lr-tb;direction:ltr;text-orientation:mixed;dominant-baseline:auto;baseline-shift:baseline;text-anchor:start;white-space:normal;shape-padding:0;clip-rule:nonzero;display:inline;overflow:visible;visibility:visible;opacity:1;isolation:auto;mix-blend-mode:normal;color-interpolation:sRGB;color-interpolation-filters:linearRGB;solid-color:#000000;solid-opacity:1;vector-effect:none;fill:#080026;fill-opacity:1;fill-rule:nonzero;stroke:none;stroke-width:13.80000019;stroke-linecap:butt;stroke-linejoin:miter;stroke-miterlimit:4;stroke-dasharray:none;stroke-dashoffset:0;stroke-opacity:1;color-rendering:auto;image-rendering:auto;shape-rendering:auto;text-rendering:auto;enable-background:accumulate"
   d="m 1056.2162,132.59959 -0.8886,0.24219 c -6.7748,1.84243 -10.5953,7.72861 -12.2422,12.47461 -1.647,4.746 -2.2122,9.21065 -2.9785,11.56445 l -0.094,0.28516 -0.066,0.29101 c -4.6469,20.02513 -9.7699,40.08947 -15.0879,59.91211 -1.85,0.41565 -3.589,1.08493 -4.8242,2.15039 -2.8833,2.48706 -4.48,5.80806 -4.6348,9.64063 -3.7036,18.83566 -12.9709,36.03412 -24.97461,51.26562 l 0.26172,-0.3125 c -2.46778,2.77731 -3.5772,5.21304 -4.36719,6.26563 l -0.56836,-0.13867 -1.56445,0.34375 c -7.54096,1.65847 -12.25067,7.55513 -14.70508,12.89258 -2.45441,5.33744 -3.54099,10.71507 -4.67187,14.17968 l -0.0117,0.0391 -0.0117,0.0391 c -6.27863,20.02772 -13.70916,40.23187 -20.01367,60.69726 -1.25536,-0.17851 -2.53162,-0.22333 -3.81446,-0.10351 -4.90434,0.45808 -10.38187,4.19026 -11.89648,9.97461 -3.62187,10.62079 -4.48441,20.56586 -8.04688,28.39258 l -0.0684,0.14843 -0.0605,0.15235 c -3.97309,9.94998 -6.05316,20.41555 -7.07813,30.55859 -0.47714,1.87036 -1.13706,3.54838 -1.71679,5.34375 -2.03352,0.22896 -4.00945,0.81415 -5.75782,1.84766 -2.39086,1.4133 -4.32861,3.80161 -5.49414,6.59961 -2.67522,-11.05393 -6.5545,-21.85136 -12.14062,-32.06836 -9.47726,-17.49923 -24.58732,-30.96892 -41.73633,-39.95508 l 0.43164,0.24609 c -12.92169,-8.00907 -27.37642,-16.43074 -44.42187,-18.25976 -9.60206,-2.40675 -17.68732,1.05144 -23.46094,1.98242 l -0.48438,0.0781 -0.46679,0.14649 c -16.37302,5.09345 -30.21219,14.41319 -43.45313,22.51953 l -0.10352,0.0625 -0.0996,0.0664 c -19.93885,13.18583 -33.59718,33.73847 -40.09766,56.16211 -0.97775,3.11401 -1.76874,6.26425 -2.5293,9.41992 -0.18705,-1.19024 -0.3743,-2.37126 -0.5625,-3.5625 l -0.7539,-4.76563 -4.73438,-0.92969 c -2.3614,-0.46342 -4.08277,-0.24803 -5.42773,0.11719 -2.33275,-9.33816 -2.42154,-20.86814 -7.74414,-32.80469 l 0.17187,0.42774 c -3.74785,-10.18411 -6.36382,-21.06439 -8.96875,-32.11524 l -0.13476,-0.5664 -0.22657,-0.53711 c -2.74771,-6.49712 -9.45854,-9.4697 -15.69531,-8.58985 -7.63717,-25.18148 -16.71217,-49.63969 -24.26172,-74.23046 l -0.11523,-0.37891 -0.16016,-0.36328 c -1.55338,-3.54895 -3.93653,-7.00845 -7.51953,-9.67969 -2.36829,-1.76563 -5.55853,-3.01031 -8.97266,-3.25781 -13.14771,-17.39911 -25.04155,-35.37347 -29.08789,-55.75586 l -0.17382,-0.87305 -0.38868,-0.80078 c 0.32365,0.6654 -0.0851,-0.39885 -0.27734,-1.68359 -0.19228,-1.28474 -0.35319,-2.87304 -0.77539,-4.69141 -0.2111,-0.90918 -0.44942,-1.88649 -1.13477,-3.17969 -0.68535,-1.2932 -2.1667,-3.39629 -5.0957,-4.17187 -0.91805,-0.2431 -1.78626,-0.24916 -2.61914,-0.16992 -6.40159,-23.52278 -11.33479,-47.80477 -18.40234,-71.86328 l -0.0312,-0.10547 -0.0352,-0.10352 c -1.50679,-4.58273 -4.73725,-7.76877 -9.08008,-9.39648 -4.34283,-1.62772 -11.09292,-0.34598 -14.40234,4.39062 l -0.24805,0.35547 -0.20312,0.38477 c -8.19328,15.58221 -4.73396,32.76646 -2.2168,46.47265 l 0.0156,0.0879 0.0195,0.0859 c 5.11138,24.31893 12.12711,48.20683 20.19335,71.52149 l 0.0801,0.23437 0.0977,0.22852 c 8.24508,19.23923 18.51791,37.25267 27.27734,55.16015 -0.66618,8.12951 1.66864,15.48083 4.60352,21.76758 3.25673,6.97618 7.06528,13.10027 9.1289,18.57031 l 0.0781,0.21094 0.0937,0.20508 c 8.24013,18.15756 16.67709,36.39797 23.26367,54.53906 -1.24746,6.22539 0.46456,12.08762 2.60352,16.50391 2.48693,5.13475 5.19825,9.31441 6.09375,12.31836 l 0.11133,0.375 0.15234,0.36132 c 4.61929,10.83445 9.21954,21.80214 13.26758,32.54102 -1.33724,1.7612 -2.3408,3.77979 -2.92578,6.06055 -0.9029,3.52027 -0.17004,8.12741 2.48242,11.61523 5.03521,16.04662 3.45009,35.89003 12.41992,55.1543 l -0.20117,-0.47656 c 13.77347,36.50449 31.01709,73.45561 59.19726,102.65429 l 1.14258,1.18555 1.55469,0.54101 c 0.24489,0.0852 -5.3e-4,-0.11061 0.20117,0.18164 0.2017,0.29225 0.61623,1.16689 1.09375,2.5293 0.49928,1.42446 1.10218,3.52024 2.25781,5.70312 -0.84118,-0.64648 -1.8141,-1.26439 -3.03711,-1.73828 -1.58261,-0.61322 -3.45365,-0.6728 -5.31445,-0.46875 -3.05848,-1.08829 -7.53886,-4.92894 -14.17187,-8.11523 l -0.0195,-0.01 c -26.28259,-15.75569 -54.05865,-26.79894 -77.3321,-43.86716 l -0.28906,-0.21094 -0.30859,-0.18164 c -4.38716,-2.56475 -10.03282,-9.29513 -19.72071,-11.0586 L 585.81,589.291 l -1.29297,0.25976 c -4.54655,0.91141 -8.81346,0.16596 -12.56446,-2.21875 l -0.46093,-0.29297 -0.5,-0.21484 c -26.16591,-11.32626 -54.13404,-11.61066 -79.8125,-14.09961 l -0.0312,-0.004 -0.0293,-0.002 c -16.19728,-1.42702 -33.06515,-4.53649 -50.5957,-4.47266 l -0.93164,0.004 -0.89844,0.25 c -3.33067,0.93018 -5.36197,2.39872 -6.56641,2.98828 -1.20443,0.58957 -0.88904,0.41899 -0.87109,0.42383 l -1.2207,-0.33008 -1.25782,0.12696 c -15.31328,1.52339 -28.8661,6.06274 -41.80664,6.04492 l -0.30859,-0.002 -0.30664,0.0273 c -10.44082,0.92022 -22.48581,-0.55461 -35.19532,1.91015 l -0.9375,0.18165 -0.85547,0.43164 c -1.60471,0.80931 -1.89046,1.0961 -2.44336,1.49023 l -0.875,-0.20898 c -19.44281,-4.64846 -39.48967,-11.74508 -61.12309,-13.73428 l -0.25781,-0.0234 -0.25977,-0.004 c -5.45247,-0.0896 -9.92019,2.6646 -12.66016,6.78515 -2.71614,4.08472 -3.08142,10.91893 0.78321,15.53125 13.21676,17.67845 35.72646,19.44049 52.31836,21.84766 7.61761,1.19567 14.94872,1.56131 21.46093,2.46289 5.53358,5.99607 13.42832,10.33041 22.49219,9.38477 20.90711,1.10927 39.29746,-6.13653 56.73828,-8.41797 1.23851,1.76391 2.69288,3.64276 4.67774,5.46094 3.42192,3.13455 9.49828,5.78854 15.55469,3.94336 l -0.125,0.0371 c 13.06555,-3.70982 27.73741,-0.94808 43.54687,0.38085 19.11636,2.38431 38.61964,5.82838 57.05664,10.35743 0.25711,0.46227 0.42978,1.03091 0.72852,1.41601 1.46536,1.88899 3.04891,2.90448 4.26953,3.6543 0.53981,0.3316 0.70189,0.46841 1.08203,0.73242 -0.0543,2.45737 0.44649,4.8824 1.57813,7.05859 1.99847,3.84317 6.20696,7.00642 11.17773,7.32422 l -0.28906,-0.0254 c 8.73698,0.92834 16.9533,4.98445 22.57422,11.45117 l 0.36914,0.42579 0.43554,0.36132 c 23.34521,19.34008 51.38889,30.58238 78.44922,40.38281 l 0.0566,0.0195 0.0566,0.0195 c 3.04545,1.04313 5.54494,1.35989 7.08985,1.78906 1.5449,0.42918 1.81979,0.65483 2.10156,1.01172 l 0.41602,0.52735 0.51171,0.4375 c 3.63172,3.11126 7.50481,3.00283 9.6543,2.99609 0.23146,0.5059 0.56753,0.91643 0.85547,1.38086 -1.0562,0.0594 -2.11511,0.17483 -3.16992,0.20117 l -6.38867,0.16016 -0.33008,6.38086 c -0.0461,0.8895 -0.36702,1.79394 -0.62891,2.65429 -3.72975,-0.96093 -7.4837,-0.57334 -10.48437,0.49805 -2.79573,0.99822 -5.02245,2.43392 -7.00977,3.87891 -35.68769,2.59503 -64.50299,24.51762 -90.75391,42.58007 l 0.16993,-0.11328 c -30.36787,19.60263 -55.87527,45.05002 -79.97071,70.63086 l -0.21093,0.22461 -0.18946,0.24219 c -2.8036,3.56606 -3.76097,7.32493 -4.50195,10.20312 -0.57764,2.24373 -1.00159,3.4237 -1.4043,4.4336 -22.53531,12.01318 -40.26357,29.52898 -59.13476,43.36523 l -0.17578,0.12891 -0.16602,0.14062 c -10.09744,8.43233 -21.72588,16.37087 -31.84375,26.72656 l -0.8125,0.83204 -0.49414,1.05078 c -2.32603,4.94177 -4.74434,8.64269 -8.14648,10.77929 l -0.48829,0.3086 -0.43164,0.38281 c -20.8687,18.59407 -44.27461,35.35491 -65.22851,55.49609 l -0.88282,0.84766 -0.53515,1.09961 c -2.16548,4.43352 -4.48077,7.32952 -7.50586,8.39842 l -0.84571,0.2989 -0.74218,0.5039 c -19.16055,13.0555 -40.39234,24.7827 -58.875,41.1718 l -0.10938,0.096 -0.10351,0.1016 c -3.38968,3.2715 -5.31486,7.4694 -5.48829,12.3047 -0.17342,4.8353 2.8561,11.0628 8.57032,13.2344 l 0.38476,0.1464 0.39844,0.1 c 8.61965,2.1462 16.51072,-0.5317 22.75781,-3.9257 6.24709,-3.3941 11.50789,-7.5342 15.92188,-9.9512 l 0.19922,-0.1094 0.18945,-0.1211 c 14.48636,-9.2104 28.56541,-18.8689 42.70898,-27.9199 2.44067,-0.049 4.9913,-0.2933 7.64649,-1.2344 3.10184,-1.0994 6.27894,-3.3119 8.47851,-6.5566 18.3585,-17.6774 39.85019,-32.65889 60.36524,-49.59377 l -0.3457,0.26758 c 3.13616,-2.2709 4.89126,-5.00087 6.23437,-7.02735 0.82466,-1.24423 1.23927,-1.67584 1.78125,-2.36328 1.54748,0.004 2.86817,0.0799 5.2168,-0.20898 3.56382,-0.43836 8.53351,-2.2871 11.39648,-6.69532 l -0.94726,1.16211 c 14.95845,-14.71184 30.70274,-28.31951 48.26367,-38.75976 l 0.14063,-0.084 0.13671,-0.0898 c 14.24793,-9.41717 30.54085,-17.33204 45.24024,-28.81836 l 0.99609,-0.7793 0.65625,-1.08007 c 0.9812,-1.61782 2.83742,-3.13674 5.62305,-5.21094 2.78563,-2.07421 6.50697,-4.72429 9.17383,-9.32227 l -0.15039,0.24805 c 6.73459,-10.56423 13.34214,-20.84222 21.4082,-29.19727 2.00095,-1.19862 4.90841,-1.97513 8.82226,-2.75781 4.16114,-0.83213 9.34324,-1.71952 14.35938,-4.99609 l 0.20117,-0.13086 0.18945,-0.14453 c 8.36457,-6.33169 14.85236,-13.04348 22.26368,-16.75391 l 0.13672,-0.0684 0.13476,-0.0742 c 13.86504,-7.73124 30.85203,-12.55311 46.91211,-21.25195 l -0.37695,0.18945 c 0.33527,-0.15591 0.65361,-0.33244 0.98828,-0.49023 -12.27606,9.98436 -22.9207,22.50541 -28.43164,38.32617 l 0.18164,-0.46484 c -18.75801,43.43473 -33.33257,88.16795 -49.94336,131.74414 l -0.0176,0.0449 -0.0156,0.0449 c -2.63458,7.21196 -5.26977,14.42503 -7.9043,21.63867 l -2.21875,6.07422 2.38281,1.0508 c -0.62827,0.8455 -0.87997,1.0248 -1.67969,2.4629 -20.66658,36.843 -40.89993,73.9572 -61.14257,110.9922 l -1.71289,3.1328 1.57031,3.207 c 1.10681,2.2627 0.33085,4.4616 -2.06446,8.2012 l -0.25976,0.4062 -0.20117,0.4395 c -15.35701,33.4882 -31.64243,66.4933 -49.39844,98.6894 l -4.27344,7.752 4.92969,1.2969 c -13.41148,24.2362 -31.06166,48.6263 -37.30078,78.6015 -1.0135,3.8676 -1.14314,8.0385 0.46484,12.4903 0.80765,2.236 2.18923,4.6552 4.68946,6.4531 2.50022,1.7979 6.03208,2.524 9.17382,2.0058 l 0.54883,-0.092 0.52735,-0.1757 c 9.82785,-3.3036 14.03755,-11.8091 17.6289,-15.9825 l 0.21875,-0.2539 0.19336,-0.2734 c 12.70802,-18.0528 17.51722,-38.4407 27.54883,-54.2832 l 0.01,-0.018 c 3.32377,-5.2159 5.80832,-10.4886 8.0254,-13.6016 1.84001,-0.4911 3.56946,-1.2219 4.90625,-2.2929 2.31298,-1.8532 3.62003,-4.0425 4.58007,-5.9688 1.9201,-3.8525 3.02493,-7.2332 3.46875,-7.8672 l 0.33789,-0.4824 0.25,-0.5312 c 11.22992,-23.8079 19.61843,-48.0872 33.39258,-68.7129 l 0.11719,-0.1739 0.10547,-0.1816 c 3.43507,-5.8885 7.94501,-12.2614 10.87109,-20.1152 0.40513,0 0.70975,0.06 1.19727,0.01 2.10006,-0.2151 4.97871,-1.6273 6.59375,-3.6895 5.88323,-5.9152 8.18931,-12.5532 11.09961,-16.2246 l 0.31445,-0.3984 0.25586,-0.4415 c 19.49225,-33.812 37.17248,-68.3876 56.78516,-101.5117 l 0.35937,-0.6093 0.23047,-0.668 c 0.17891,-0.522 0.15587,-0.4258 0.31055,-0.7285 l 0.5625,-0.064 c 3.01261,-0.342 6.05831,-1.9611 7.86914,-4.0957 1.81082,-2.1347 2.53819,-4.3709 2.98633,-6.2364 0.89626,-3.731 1.09934,-6.8621 1.19335,-7.1406 l 0.20313,-0.6035 0.0898,-0.6289 c 2.56569,-17.99351 9.55038,-35.44026 16.4336,-53.35353 0.54324,0.14453 0.93409,0.353 1.52148,0.46289 1.98356,0.37106 4.47381,0.57861 7.26172,-0.5586 2.78791,-1.1372 5.23517,-3.95389 6.19336,-6.83203 l 0.14063,-0.41992 0.084,-0.43359 c 5.63379,-28.78523 11.62709,-57.71241 26.72852,-81.35352 2.48419,14.29245 7.23509,27.71539 10.79882,40.58789 l 0.0586,0.20703 0.0703,0.20508 c 4.70414,13.6144 18.71484,23.88039 33.98828,20.70703 17.09919,-2.6374 32.03724,-16.57391 34.29492,-33.91211 8.55697,0.47669 17.2906,-2.07285 23.67383,-7.97461 6.2932,5.71274 14.82939,8.45639 23.30274,7.83985 2.97709,21.83573 25.50253,38.62414 47.56054,33.25195 l 0.10742,-0.0254 0.10743,-0.0293 c 14.17358,-3.93997 21.19098,-17.43675 23.1875,-29.43945 l -0.16407,0.73047 c 2.88173,-10.2716 6.44884,-21.11386 8.45899,-32.57422 13.16305,19.5071 18.36372,44.45924 24.47461,69.06641 1.18228,5.35236 2.24669,10.71117 3.25781,16.11914 l 0.9082,4.84961 4.88086,0.71093 c 3.78648,0.55114 6.5255,-0.54137 8.60156,-1.48632 7.05234,19.77422 14.7524,38.90298 17.12696,58.44332 l -0.0508,-0.8964 c -0.0392,4.2097 1.39728,8.0961 4.44921,11.205 1.72788,1.7602 4.36948,2.9911 7.21094,3.4493 1.04061,2.1927 2.39053,5.143 5.23047,8.8085 19.35961,32.9884 36.57833,67.717 56.72463,101.0918 l 0.096,0.1582 0.1035,0.1524 c 3.0052,4.4231 6.026,8.8147 9.0293,13.1973 l 7.082,10.3339 1.5645,-3.6386 c 4.6382,10.0334 11.4396,17.7836 15.2636,25.58 l 0.098,0.1993 0.1094,0.1933 c 12.108,21.1319 20.0109,45.1962 31.8867,68.3184 0.7515,2.2239 2.4012,4.7212 4.7383,5.7168 1.7755,0.7563 3.0063,0.8289 3.9805,0.7519 10.3061,17.3183 19.3078,35.5384 27.0957,54.127 l 0.168,0.4043 0.2187,0.3789 c 5.586,9.6844 12.0042,22.6749 25.3223,29.0586 l 1.041,0.498 1.1465,0.1328 c 3.1127,0.3609 6.5071,-0.5379 8.8613,-2.3535 2.3542,-1.8155 3.6638,-4.1666 4.4336,-6.3691 1.5397,-4.4051 1.4305,-8.549 0.1172,-12.5352 l 0.2324,0.9024 c -5.6483,-30.5392 -24.2097,-54.8129 -37.1309,-79.1992 l -0.1621,-0.3067 -0.1933,-0.2871 c -0.4011,-0.602 -0.2916,-0.3948 -0.5371,-0.793 l 0.2949,-1.0937 c 1.5763,-5.8497 -0.7881,-11.0655 -2.8066,-14.4043 -2.0186,-3.3388 -3.7395,-5.8032 -4.1055,-6.959 l -0.2012,-0.6328 -0.3183,-0.584 c -14.8854,-27.3237 -28.2701,-55.5694 -41.3223,-84.0019 l -0.2774,-0.6055 -0.3886,-0.541 c -1.7519,-2.4391 -2.2165,-4.6509 -1.6465,-6.2891 l 0.5996,-1.7246 -0.332,-1.7949 c -2.1279,-11.5396 -9.5228,-18.6435 -12.0762,-24.9571 l -0.1504,-0.3691 -0.1914,-0.3496 c -16.9604,-31.0679 -33.8967,-62.2399 -51.6994,-93.00205 0.4577,-1.37169 0.7661,-2.76998 0.7871,-4.07813 0.046,-2.87327 -0.7094,-5.23798 -1.4804,-7.19726 -1.5421,-3.91856 -3.086,-6.86011 -3.2168,-7.6543 l -0.1133,-0.68555 -0.2481,-0.64843 c -18.2793,-48.00982 -33.96819,-97.66744 -56.13863,-145.07422 l -0.0176,-0.041 -0.0195,-0.0391 c -6.12487,-12.66565 -15.39866,-22.95447 -25.91601,-31.37695 14.52842,6.96134 29.19291,13.64272 44.14453,19.66992 9.52545,4.55459 17.90664,12.87115 28.21291,20.31445 l 0.3808,0.27539 0.4141,0.22071 c 5.8723,3.12812 11.6059,3.54401 15.752,4.51171 4.146,0.96771 6.0897,1.76495 7.6269,4.28125 l 0.3418,0.5586 0.4414,0.48437 c 8.2536,9.07865 13.9802,22.32008 24.8906,33.3125 l 0.8008,0.80664 1.0195,0.50782 c 1.7102,0.85175 3.3416,2.42154 5.504,4.75 2.1623,2.32845 4.8156,5.40299 8.9531,7.75976 l -0.2539,-0.15234 c 27.8918,17.5195 56.8391,32.5115 78.916,54.83594 l 0.1055,0.10742 0.1113,0.10156 c 2.4187,2.24149 5.5439,6.00209 9.8613,9.20313 3.6223,2.68563 8.847,4.78671 14.5078,4.28906 0.061,0.0962 0.024,0.0267 0.094,0.14648 0.8439,1.45868 1.9133,4.7587 5.8203,7.50196 l -0.955,-0.8086 c 9.559,9.71899 20.6218,15.53954 28.4765,23.1211 l 0.2442,0.23632 0.2675,0.21094 c 13.4878,10.6665 26.9135,20.682 37.834,32.4922 l 1.3809,1.4922 1.9668,0.5078 c 3.4918,0.8976 6.4991,1.1944 8.6289,1.7344 2.1298,0.5399 3.1035,1.0547 3.9121,2.0019 l 0.6699,0.7852 0.8711,0.5547 c 19.0449,12.1344 37.6528,26.3718 58.9668,37.1132 l 0.1309,0.065 0.1308,0.06 c 3.8749,1.7523 8.3582,2.6696 13.2344,1.8594 4.8762,-0.8102 10.6974,-4.7636 12.0977,-11.0078 l 0.1777,-0.793 -0.012,-0.8125 c -0.108,-7.7823 -4.6886,-13.6621 -9.1738,-17.498 -4.4853,-3.836 -9.2085,-6.5228 -11.9864,-8.8223 l -0.1855,-0.1523 -0.1934,-0.1387 c -16.5025,-11.8372 -33.8295,-22.034 -49.3359,-33.459 -7.476,-13.99098 -21.1068,-20.43667 -29.0625,-28.24021 l -0.1758,-0.17383 -0.1895,-0.16016 c -15.8273,-13.43933 -32.2798,-25.53348 -46.1406,-39.51367 -3.0123,-6.33331 -7.468,-12.47012 -14.3984,-16.40039 l 0.8496,0.56836 c -24.246,-18.97454 -47.8574,-39.54819 -73.9942,-57.30859 -3.4266,-2.46694 -6.4061,-3.20582 -7.7929,-3.95899 -0.2544,-0.13815 -0.1252,-0.0561 -0.2461,-0.14258 v -0.0117 l -0.1406,-0.81055 c -1.5645,-9.06942 -6.6862,-15.90506 -11.9707,-21.38867 -5.2846,-5.48362 -10.8697,-9.96249 -14.75,-14.3711 l -0.1368,-0.15429 -0.1445,-0.14649 c -20.1835,-20.34518 -42.286,-38.93835 -66.6973,-54.39062 l 0.2227,0.14843 c -23.71927,-16.34377 -50.104,-34.82658 -82.03677,-37.40624 l -1.01953,-0.084 -0.56836,0.125 c -0.12995,-0.11118 -0.38336,-0.30649 -0.77344,-0.86914 l -0.9414,-1.35742 -1.45508,-0.78516 c -4.65376,-2.50791 -9.05952,-1.72503 -11.64063,-1.41601 -0.74988,0.0898 -0.44277,0.0369 -0.89648,0.0606 -0.71252,-1.80894 -1.74201,-3.53463 -3.14649,-5.13086 -1.96937,-2.23825 -5.21079,-4.00144 -8.74218,-4.45313 0.0851,-0.12714 0.2654,-0.33286 0.33789,-0.43945 l 0.5039,-0.0723 c 4.78255,-0.6958 8.138,-2.90692 10.62305,-4.32422 2.48505,-1.4173 3.9658,-2.05467 5.23828,-2.10156 l 0.85547,-0.0312 0.82031,-0.23828 c 22.60599,-6.58716 43.69401,-16.96226 63.6875,-28.23242 l 0.0352,-0.0215 0.0371,-0.0215 c 11.01298,-6.38505 19.45286,-14.83207 28.04876,-21.20314 5.6682,-2.6171 12.5526,-3.87279 20.045,-5.53516 l 7.498,-1.66406 -2.4531,-7.27734 c -0.4099,-1.21551 -0.3505,-3.01715 -0.047,-3.79297 0.3035,-0.77583 -0.1076,-0.5772 0.7949,-0.68164 l 6.4199,-0.74219 -0.2422,-4.8418 c 1.5911,-0.24097 4.2403,-0.21763 7.8711,-1.50781 28.1491,-5.88609 56.5064,-11.06605 84.4395,-10.40039 3.0565,0.87413 6.9726,2.03479 11.5801,2.05273 5.0389,0.0196 11.6281,-2.28692 15.039,-8.08203 l -0.1582,0.25391 c 0.76,-1.17176 0.9403,-1.45755 1.334,-2.07227 l 0.088,0.01 c 20.3761,2.23189 43.4292,12.74914 68.6504,6.93946 l 0.416,-0.0957 0.4004,-0.14649 c 5.1719,-1.88758 7.6216,-5.43324 9.2793,-7.03125 1.6577,-1.598 0.9574,-1.36374 1.7558,-1.21289 l 1.0762,0.20313 1.086,-0.13868 c 20.0534,-2.58473 44.8748,-2.11246 64.6835,-17.16992 3.504,-2.49829 6.3675,-5.92246 7.9004,-10.58398 0.7747,-2.35579 1.1585,-5.17163 0.3633,-8.14258 -0.7952,-2.97095 -2.9394,-5.80185 -5.6816,-7.54883 l -0.4297,-0.27344 -0.4668,-0.20703 c -6.1744,-2.75453 -12.4027,-2.25414 -17.5723,-1.24414 -5.1695,1.01001 -9.6881,2.48609 -13.1386,2.97071 l -0.3145,0.043 -0.3105,0.0742 c -13.3095,3.1384 -26.2509,6.7538 -39.1504,9.82812 -5.3025,-2.88342 -10.9933,-3.48599 -15.8262,-3.43359 -5.8144,0.063 -10.878,0.60884 -14.4219,0.0195 l -0.5097,-0.084 -0.5157,-0.008 c -15.3739,-0.24021 -30.8595,-2.74181 -46.2949,-6.23829 l -0.9746,-0.2207 -1,0.0664 c -3.6201,0.23674 -5.7611,-0.10954 -7.6172,-1.43359 l -0.918,-0.6543 -1.0781,-0.32812 c -12.8441,-3.91364 -24.0012,0.93761 -32.0683,0.99609 l -0.42,0.004 -0.4179,0.0547 c -25.2125,3.26616 -51.5375,3.59429 -77.8614,8.8418 l -0.049,0.01 -0.049,0.01 c -11.0426,2.36744 -21.2373,6.54418 -30.8593,10.51953 -3.0191,-0.37078 -6.2964,-0.59065 -9.836,-0.0234 -3.9045,0.6257 -8.12967,2.41802 -11.47457,5.7539 -21.26383,15.53109 -44.92746,28.07576 -68.9668,40.10743 l -0.0547,0.0273 -0.0566,0.0293 c -10.51437,5.50257 -20.4427,11.88824 -29.95312,17.09961 -1.67538,-0.24043 -3.37131,-0.18821 -4.85352,0.28125 -2.34058,0.74132 -3.83059,1.98418 -5.03125,3.15625 1.87208,-2.59711 3.42325,-5.53394 4.21094,-9.02735 0.12437,-0.19801 0.46516,-0.62835 1.9961,-1.74414 1.66602,-1.21424 4.47564,-3.00157 6.57226,-6.5332 l -0.81641,1.10742 c 26.82179,-29.64527 42.88408,-66.38132 56.05079,-102.45703 l -0.14844,0.36914 c 7.66945,-17.76378 5.85367,-35.51034 10.48828,-49.50586 4.20769,-5.34782 4.11543,-13.07356 -0.30469,-18.35742 6.64838,-17.44269 14.35787,-34.65492 22.16211,-51.8125 l 0.16406,-0.36133 0.1211,-0.3789 c 1.52276,-4.72225 0.23314,-8.45412 -0.0723,-10.19336 -0.12465,-0.70987 -0.20233,-0.75139 -0.26562,-0.7793 l 0.71093,-0.80274 0.44336,-1.07421 c 10.57313,-25.69047 22.41329,-50.98302 34.09569,-76.44727 l 0.051,-0.10937 0.045,-0.10938 c 2.7787,-6.65648 2.4293,-12.70895 2.7246,-17.08008 13.0175,-25.33015 28.4937,-50.92078 35.3789,-80.64453 l -0.072,0.28125 c 6.5478,-23.67748 15.7464,-48.82947 14.0801,-75.96484 l -0.014,-0.23242 -0.031,-0.23243 c -0.3301,-2.54349 -0.7516,-6.78291 -2.4336,-11.11523 -0.841,-2.16616 -2.0191,-4.45592 -4.0996,-6.48438 -2.0805,-2.02845 -5.2943,-3.60068 -8.6562,-3.72656 l -0.1289,-0.006 z m 0.92,14.93164 c 0.068,0.14615 0.085,0.10812 0.1523,0.28125 0.7411,1.90887 1.2296,5.04472 1.5703,7.63086 1.379,23.35997 -6.8907,46.94482 -13.6094,71.24024 l -0.039,0.14062 -0.033,0.14258 c -6.3418,27.37792 -21.4171,52.37409 -34.8769,78.72656 l -0.5859,1.14649 -0.1329,1.27929 c -0.6387,6.13947 -0.4729,11.16128 -1.791,14.34375 -11.61744,25.31993 -23.49759,50.69817 -34.20504,76.71094 -2.14442,3.69889 -2.14856,8.00343 -1.73828,10.33985 0.4713,2.68398 0.50101,3.51142 0.51953,3.49609 -7.78304,17.11699 -15.5761,34.49754 -22.36329,52.35156 l 1.00977,-1.79297 c -1.61818,2.0732 -3.16409,5.15391 -2.55273,8.67383 0.61135,3.51992 2.92714,5.6712 4.75781,6.97852 l -0.72266,-0.59375 c 0.40675,0.38323 0.35021,0.86399 0.0234,1.16211 l -1.26563,1.15625 -0.58007,1.61328 c -6.51768,18.18364 -4.49808,35.896 -10.46094,49.70703 l -0.0801,0.18164 -0.0684,0.1875 c -12.95629,35.49918 -28.47763,70.47381 -53.32031,97.93164 l -0.46289,0.51171 -0.35352,0.59375 c -0.22053,0.37148 -1.01028,1.09805 -2.83203,2.42579 -1.82174,1.32774 -4.76223,3.36619 -6.56054,7.23828 l -0.42383,0.91211 -0.14453,0.99414 c -0.59427,4.05414 -3.88482,7.49072 -8.76758,11.10937 l 0.33398,-0.23242 c -1.97895,1.29311 -4.33421,3.86713 -4.58008,7.18164 -0.24587,3.31451 1.24387,5.35725 2.0918,6.49219 1.69586,2.26988 1.70524,3.44898 1.3125,0.7832 l 0.13672,0.92578 0.37695,0.85547 c 1.20755,2.73426 4.51068,5.7998 7.92383,6.12695 3.41315,0.32716 5.35043,-0.88539 6.70508,-1.59765 0.78654,-0.41356 1.00937,-0.5408 1.45508,-0.78906 l 1.28711,0.60937 3.08398,-1.69141 c 4.23957,-2.32401 5.51834,-4.91966 6.49805,-6.22851 l 1.90039,1.07617 3.34375,-1.76953 c 11.0249,-5.83612 21.70878,-12.89993 32.18554,-18.38281 24.22523,-12.12675 48.58882,-24.99109 70.92188,-41.31836 l 0.6602,-0.48242 0.5292,-0.625 c 1.0111,-1.1926 2.1675,-1.76214 4.2247,-2.0918 2.0571,-0.32966 4.8246,-0.17958 7.5898,0.24609 l 1.9043,0.29297 1.7812,-0.73633 c 10.0785,-4.16469 20.0986,-8.27308 30.086,-10.41992 24.6521,-4.90749 50.629,-5.28058 76.8828,-8.68164 11.3257,-0.24547 20.1835,-3.45132 26.8379,-1.57226 4.5149,2.58798 9.3683,3.19671 13.6543,3.0332 15.6596,3.51283 31.7269,6.11769 48.0859,6.39453 6.0566,0.86394 11.5382,0.13274 16.0352,0.084 4.6987,-0.0509 7.8119,0.44159 10.4023,2.45508 l 2.5938,2.01758 3.2011,-0.74415 c 14.1979,-3.29436 28.0215,-7.2439 41.7969,-10.49218 l -0.625,0.11718 c 5.2622,-0.73905 9.9006,-2.31681 13.8672,-3.09179 3.224,-0.62989 5.6325,-0.57668 7.7754,-0.0156 -0.5136,1.06171 -1.7694,2.69991 -2.5918,3.27929 l -0.1074,0.0762 -0.1055,0.0801 c -15.0927,11.52356 -36.7384,11.75617 -58.1777,14.51954 l 2.1621,0.0625 c -6.0492,-1.14285 -11.3122,2.34855 -13.8945,4.83789 -2.4879,2.39825 -3.8247,3.63423 -4.2696,3.85547 -19.1759,4.11681 -39.8227,-4.55395 -62.7246,-7.19141 -1.7214,-0.61594 -3.5811,-1.00102 -5.4101,-0.66016 -2.593,0.48323 -4.4813,1.88816 -5.7227,3.12696 -2.4828,2.47758 -3.4621,4.80085 -4.041,5.69336 l -0.082,0.125 -0.076,0.1289 c -0.8128,1.381 -0.9055,1.28977 -3.0918,1.28125 -2.1863,-0.009 -5.6014,-0.8756 -8.8574,-1.78906 l -0.8203,-0.23047 -0.8536,-0.0234 c -30.183,-0.82897 -59.8929,4.7252 -88.5586,10.72266 l -0.6386,0.13476 -0.6055,0.25196 c 0.2094,-0.0874 -3.2711,0.28247 -7.2559,1.20117 -1.9924,0.45935 -4.4404,1.18401 -6.7343,3.34179 -1.0168,0.95644 -1.8101,2.24301 -2.4063,3.63477 -3.2879,1.77665 -5.8517,4.62568 -7.0351,7.65039 -0.7289,1.86285 -1.0612,3.7474 -1.1739,5.62109 -5.6593,1.20356 -11.5788,2.57468 -17.5683,5.47071 l -0.5625,0.27148 -0.5039,0.36914 c -9.96886,7.28239 -18.2107,15.51669 -27.32425,20.8086 -19.4427,10.95761 -39.5187,20.7646 -60.49414,26.90625 -4.31772,0.50414 -7.6824,2.3198 -10.125,3.71289 -2.71766,1.54996 -4.4973,2.46835 -5.77539,2.65429 l 2.71094,0.14454 c -2.65514,-0.68245 -6.00976,-0.13306 -8.11719,1.17187 -2.10742,1.30493 -3.12605,2.76659 -3.85742,3.75391 -1.46273,1.97464 -1.62156,1.61172 -0.39648,1.33007 l -0.97657,0.22461 c -0.24229,-0.0301 -0.16663,-0.0261 -0.5664,-0.0723 -1.0202,-0.11772 -3.01597,-1.10404 -6.47071,1.50391 -1.72736,1.30398 -2.84263,3.75551 -3,5.44141 -0.15737,1.68589 0.14739,2.79991 0.45118,3.77929 l -0.28516,-2.625 c -0.25677,3.04065 0.70978,6.68772 2.95703,8.99024 2.24725,2.30251 4.80694,3.01403 6.77148,3.38476 3.92909,0.74147 7.20773,0.67388 7.26758,0.68946 l 1.74024,0.45312 1.33398,-0.34766 c 0.34651,0.44021 0.8894,1.71524 0.9375,2.47852 l 0.23242,3.68555 3.19532,1.85156 c 4.61407,2.67254 9.05471,1.8667 11.64453,1.55664 2.11814,-0.25359 2.53222,-0.1529 2.82422,-0.11328 0.93962,1.03111 2.02619,2.03668 3.47461,2.89648 2.05683,1.22097 4.86204,1.91207 7.6875,1.70313 27.03955,2.30531 51.3656,18.69519 74.98048,34.9668 l 0.1094,0.0762 0.1132,0.0723 c 23.3645,14.78965 44.6874,32.6964 64.2832,52.44922 l -0.2812,-0.30078 c 5.0244,5.70848 10.7525,10.24223 15.1738,14.83008 4.4213,4.58785 7.3982,8.88218 8.3086,14.16016 l -0.086,-1.62891 c -0.194,2.93755 0.7877,6.0644 2.3887,8.18164 1.601,2.11724 3.4819,3.31499 5.0957,4.19141 3.2275,1.75283 5.9168,2.74112 6.3242,3.03515 l 0.08,0.0566 0.082,0.0566 c 25.2788,17.16116 48.7079,37.55064 73.3809,56.85938 l 0.4043,0.3164 0.4453,0.25196 c 4.1197,2.3363 7.0505,6.25757 9.2949,11.37109 l 0.5078,1.1582 0.8867,0.90235 c 15.0599,15.3452 32.1754,27.79488 47.7246,40.99805 l -0.3672,-0.33399 c 10.7041,10.49932 22.7086,16.38816 27.2618,26.08006 l 0.7363,1.5664 1.3887,1.0332 c 16.6175,12.3761 34.4615,22.7814 50.6328,34.3809 l -0.379,-0.291 c 4.2262,3.4983 8.7604,6.0624 11.8184,8.6777 2.5906,2.2155 3.8255,3.8615 4.1836,6.0137 -0.1152,-0.024 -0.1441,-0.072 -0.5664,-0 -1.2757,0.2119 -3.8143,-0.1888 -5.2129,-0.8008 -19.5609,-9.888 -37.6535,-23.5833 -57.1172,-36.0195 -3.0749,-3.0222 -6.7967,-4.5876 -9.9336,-5.3829 -2.8191,-0.7146 -4.9579,-1.007 -6.9062,-1.3886 -11.7106,-12.2661 -25.06,-22.26033 -37.7363,-32.28518 l 0.5117,0.44727 c -9.729,-9.39058 -20.6505,-15.17236 -28.2187,-22.86711 l -0.4414,-0.44922 -0.5136,-0.35937 c 0.4246,0.29813 -0.4329,-0.74783 -1.8047,-3.11914 -0.6859,-1.18566 -1.5787,-2.67983 -3.2012,-4.16407 -1.6225,-1.48423 -4.1908,-2.79919 -6.875,-3.02343 l -1.252,-0.10352 -1.2089,0.34375 c -2.2105,0.62852 -3.2992,0.1835 -5.7911,-1.66406 -2.4585,-1.82285 -5.274,-5.03851 -8.5761,-8.11524 -24.0936,-24.32665 -54.1207,-39.66438 -81.2969,-56.73437 l -0.125,-0.0781 -0.1289,-0.0742 c -1.7166,-0.97777 -3.4212,-2.73257 -5.6738,-5.1582 -1.9111,-2.05782 -4.455,-4.5156 -7.7871,-6.57031 -8.3801,-8.5304 -14.0747,-21.41889 -24.3282,-32.69727 l 0.7832,1.04297 c -4.0843,-6.68587 -10.9224,-9.27782 -16.2675,-10.52539 -5.1977,-1.21316 -9.4981,-1.85863 -12.1153,-3.16016 -8.8898,-6.51415 -17.71012,-15.38604 -29.85349,-21.18554 l -0.19531,-0.0937 -0.20117,-0.0801 c -22.44639,-9.03335 -44.44886,-19.24891 -65.99414,-30.38086 -1.46725,-1.20028 -3.1467,-2.22639 -5.07813,-2.52148 -2.70697,-0.4136 -4.96383,0.3595 -6.43164,1.03711 -2.93562,1.3552 -4.29753,2.17391 -3.65625,2.03906 l -7.2207,1.51758 1.99805,7.10351 c 1.27213,4.52055 4.56659,5.96493 6.60547,6.86133 2.03887,0.8964 3.8255,1.3377 4.65429,1.60547 l -1.24804,-0.54492 c 1.54779,0.86592 2.87847,1.28796 4.07031,1.61328 -0.15148,0.66235 -0.27022,1.3631 -0.21289,2.10547 0.13293,1.72157 0.92318,3.1852 1.63867,4.05859 1.07265,1.30938 1.87214,1.7456 2.58594,2.07031 13.55423,8.73001 25.3524,19.84278 32.09179,33.76368 21.60828,46.21795 37.20545,95.4257 55.62504,143.83203 0.9627,4.39886 2.9265,7.35083 3.7246,9.3789 0.433,1.10035 0.5255,1.78998 0.5234,1.92188 -0,0.1319 0.1755,-0.20536 -0.1,0.12695 l -3.0703,3.70703 2.4199,4.16207 c 18.3523,31.5661 35.7822,63.7399 53.3496,95.92 l -0.3418,-0.7207 c 3.8759,9.5835 9.6041,15.7573 11.0391,21.5644 -0.9743,5.5694 0.6764,10.8622 3.3711,15.0078 13.0877,28.5082 26.5905,57.0145 41.7109,84.7696 l -0.5195,-1.2168 c 1.485,4.6893 4.0731,7.649 5.4531,9.9316 1.1859,1.9615 1.3629,2.65 1.2774,3.3144 -1.2443,2.6272 -1.6825,5.8513 -0.9844,7.9864 0.9534,2.9159 2.2352,4.28 2.9844,5.3652 13.5979,25.551 30.6458,48.5647 35.4961,74.7891 l 0.086,0.459 0.1464,0.4433 c 0.082,0.2495 -0.028,0.9959 -0.018,1.6758 -6.1003,-4.5888 -10.8467,-12.6615 -15.6718,-21.0254 -8.2852,-19.7185 -17.8815,-39.1345 -29.0391,-57.6016 l 0.373,0.709 c -1.1797,-2.5911 -4.3776,-4.9374 -6.7929,-5.3769 -0.4955,-0.09 -0.7749,-0.038 -1.1875,-0.066 -10.8298,-21.4116 -18.7378,-45.067 -31.4375,-67.3203 -6.1482,-12.491 -14.7162,-21.4971 -17.4356,-31.4532 l 0.2442,1.8282 c 0,-2.4909 -1.0408,-5.4387 -3.1094,-7.3028 -2.0686,-1.864 -4.605,-2.4621 -6.7051,-2.4121 -0.4924,0.012 -0.951,0.1462 -1.4297,0.2129 -1.771,-2.583 -3.549,-5.1678 -5.3027,-7.748 -19.7345,-32.7085 -36.9219,-67.3636 -56.60351,-100.8926 l -0.28516,-0.4844 -0.35937,-0.4336 c -1.559,-1.8744 -2.64529,-6.9849 -7.28126,-12.3223 l -3.25976,-3.7519 -3.50586,1.4531 c -0.12147,-0.3047 -0.25965,-0.5368 -0.25781,-0.7344 l 0.004,-0.4492 -0.0547,-0.4472 c -2.95237,-24.29523 -12.67208,-46.19024 -19.99414,-67.51566 l -1.42969,-4.16602 -4.37891,-0.45703 c -3.31092,-0.34566 -5.53557,0.50165 -7.3457,1.34375 -0.61412,-3.07918 -1.18665,-6.15095 -1.87109,-9.24609 l -0.0176,-0.0859 -0.0215,-0.0879 c -6.86859,-27.64767 -12.63659,-58.9131 -33.6582,-82.91992 l -0.42969,-0.49024 -0.51172,-0.40039 c 0.69355,0.54222 0.13267,0.0982 -0.30273,-0.39843 -0.4354,-0.49665 -0.99354,-1.16157 -1.66992,-1.875 -0.67639,-0.71344 -0.52005,-1.56606 -3.92969,-2.76563 -0.85241,-0.29989 -2.17958,-0.64381 -3.96289,-0.25391 -1.78331,0.38991 -3.64351,1.81448 -4.48633,3.13868 -1.44096,2.26396 -1.27946,3.46654 -1.1582,4.39453 -0.0466,14.32871 -5.18027,29.10604 -9.52539,44.59375 l -0.10157,0.36132 -0.0625,0.36915 c -1.40543,8.44923 -6.04898,16.31473 -13.15429,18.36328 -13.90767,3.30295 -30.84894,-10.58743 -30.75196,-24.88867 0.0867,-0.53117 0.21645,-0.97366 0.22461,-1.66797 0.015,-1.27799 -0.0614,-3.31233 -1.82617,-5.44922 -1.76477,-2.1369 -4.84393,-2.88853 -6.58008,-2.78711 -1.73614,0.10142 -2.813,0.53556 -3.8789,0.98633 l 0.91797,-0.31446 c -7.37679,1.95825 -16.10791,-1.36594 -19.57032,-7.91015 l -6.32812,-11.96094 -5.96484,12.14648 c -3.59347,7.31705 -13.86267,10.085 -22.04688,7.46094 l -10.33203,-3.3125 1.38086,10.76172 c 1.62338,12.65361 -10.29904,25.66397 -22.96875,27.53516 l -0.22461,0.0332 -0.2207,0.0488 c -7.49941,1.61636 -15.56677,-4.08608 -18.21289,-11.64063 -5.18423,-18.6466 -11.77866,-36.25968 -11.9004,-53.77734 l -0.10351,-14.85352 -11.28516,9.66016 c -4.1104,3.5193 -7.37553,7.5605 -10.21093,11.56055 l -0.0332,0.0449 -0.0312,0.0469 c -17.94945,26.2134 -24.33039,57.07712 -30.02539,86.125 -1.12368,-0.41715 -2.19656,-0.80686 -3.70117,-1.44336 l -6.60938,-2.79492 -2.5332,6.71485 c -7.47083,19.80516 -16.37279,40.12391 -19.5918,62.69916 l 0.29493,-1.23237 c -1.2939,3.83317 -1.2039,6.64367 -1.51368,8.13477 -2.92463,0.2471 -5.8129,1.5034 -7.48632,3.2148 -2.03776,2.0841 -2.89516,4.1593 -3.55469,6 -19.77461,33.4367 -37.39735,67.8577 -56.54688,101.086 -4.21639,5.5259 -6.45274,10.6408 -9.04101,13.7226 -0.77003,-0.1356 -1.737,-0.2331 -3.22656,-0 -2.34043,0.3632 -5.41609,2.5208 -6.60938,4.8301 l -0.34961,0.6777 -0.19336,0.7383 c -1.73994,6.6268 -6.36194,13.1117 -10.91601,20.9102 -14.96361,22.5109 -23.46549,47.4123 -34.21289,70.1973 l 0.58789,-1.0137 c -2.804,4.0052 -3.5396,7.6706 -4.51368,9.625 -0.43376,0.8703 -0.71298,1.1446 -0.76562,1.207 l -3.04102,-0.1289 -2.16015,2.2617 c -5.51963,5.7807 -8.04779,12.8957 -10.8418,17.2774 l -0.006,0.01 -0.004,0.01 c -11.64897,18.3862 -16.46435,38.416 -27.09961,53.6015 -3.60752,4.2326 -6.36648,8.0047 -8.8418,10.0567 -0.0611,-1.0279 -0.21157,-2.0932 -0.0586,-2.6719 l 0.0508,-0.1875 0.0391,-0.1895 c 5.48852,-26.7663 22.51445,-50.4286 36.625,-76.205 2.05619,-2.5107 3.23727,-5.7559 2.64258,-9.2207 -0.20857,-1.2152 -0.74308,-2.3544 -1.41016,-3.4317 16.94603,-31.0495 32.57908,-62.7404 47.29297,-94.8262 2.67024,-4.3945 5.19989,-10.5772 3.66601,-17.125 19.77301,-36.1794 39.51181,-72.3819 59.64258,-108.2695 l 0.008,-0.014 0.008,-0.012 c -0.0323,0.058 2.12705,-2.3308 3.84179,-5.7558 0.85738,-1.7125 1.8684,-4.23313 1.0918,-7.50199 -0.20487,-0.86237 -0.56526,-1.66626 -1.01367,-2.41797 2.13388,-5.84158 4.26999,-11.68287 6.4043,-17.52539 l -0.0352,0.0898 c 16.77189,-43.99879 31.29642,-88.5365 49.7168,-131.18945 l 0.0996,-0.22852 0.082,-0.23632 c 5.97345,-17.14851 20.08021,-30.56893 36.12109,-40.80274 l 14.33789,-9.14648 -4.34961,-0.89453 c 1.86784,-1.00092 3.73054,-2.29696 5.34766,-4.28516 l 3.71094,-4.5625 -3.91797,-4.38672 c -2.63512,-2.95188 -4.1133,-2.45949 -5.01367,-2.63476 -0.57843,-0.1126 -0.84811,-0.15281 -1.19336,-0.20899 l -2.08985,-4.4668 -6.16211,2.68946 c -9.63032,4.20488 -19.16654,9.60987 -28.19922,13.81054 l -0.18945,0.0879 -0.18555,0.10156 c -14.19561,7.68896 -31.14399,12.50046 -46.89062,21.24804 -10.02682,5.04816 -17.00302,12.42533 -24.04297,17.80664 -2.14702,1.36351 -5.29242,2.14608 -9.39648,2.9668 -4.16723,0.83335 -9.3168,1.70893 -14.26367,5.0293 l -0.57618,0.38672 -0.48828,0.49414 c -9.75135,9.87966 -16.94157,21.3464 -23.83398,32.1582 l -0.0781,0.1211 -0.0723,0.12695 c -0.94709,1.63288 -2.73186,3.1306 -5.47852,5.17578 -2.42702,1.80718 -5.56535,4.10822 -8.15625,7.70898 -13.00493,10.02585 -28.58052,17.75335 -43.55469,27.63086 -18.92132,11.26671 -35.4387,25.62133 -50.78125,40.71094 l -0.53711,0.5293 -0.41015,0.63281 c -0.29078,0.44772 0.0119,0.32674 -1.50781,0.51367 -1.51972,0.18693 -4.15203,-0.0329 -7.48633,0.27149 l -2.16016,0.19726 -1.6582,1.39649 c -2.8019,2.35987 -4.27971,4.92239 -5.51172,6.78125 -1.23201,1.85885 -2.15986,2.99212 -2.82617,3.47461 l -0.17774,0.12695 -0.16797,0.14062 c -20.04509,16.54694 -42.01501,31.76984 -61.51758,50.62306 l -0.80664,0.7793 -0.51757,0.9961 c -0.36234,0.6966 -0.69438,0.9829 -1.82813,1.3847 -1.13375,0.4019 -2.97164,0.615 -4.83984,0.5196 l -2.19922,-0.1133 -1.85742,1.1836 c -14.95062,9.514 -29.53199,19.5687 -44.25196,28.9277 l 0.38867,-0.2304 c -5.92396,3.2439 -11.08148,7.323 -15.88281,9.9316 -4.33486,2.3551 -7.85598,3.3944 -11.62109,2.8144 0.13344,-0.7774 0.71333,-2.1323 1.15039,-2.5781 16.93577,-14.968 37.50103,-26.4484 57.29492,-39.9355 l -1.58594,0.8047 c 7.46179,-2.6367 11.73381,-8.5834 14.57227,-14.0254 19.84348,-18.95154 42.79775,-35.48776 64.16211,-54.52346 l -0.91992,0.6914 c 6.3692,-3.99996 9.97657,-9.87114 12.64648,-15.32422 8.71162,-8.74838 19.55685,-16.32614 30.04297,-25.07226 20.584,-15.12687 38.31291,-32.64735 59.36133,-43.32031 l 1.75391,-0.88867 1.02148,-1.67969 c 2.15906,-3.54823 2.71857,-6.86058 3.37695,-9.41797 0.64734,-2.51446 1.29615,-4.16936 1.95118,-5.03125 23.77624,-25.22442 48.44053,-49.65346 77.04101,-68.11524 l 0.084,-0.0566 0.084,-0.0566 c 27.16367,-18.69049 54.4783,-38.89359 85.83203,-40.42969 l 2.20899,-0.10937 1.73437,-1.37305 c 1.68549,-1.33401 3.475,-2.44446 4.80664,-2.91992 1.33164,-0.47546 1.88411,-0.46104 2.66602,-0.13086 l 0.125,0.0527 0.1289,0.0469 c 2.74386,1.03253 6.12243,1.12991 8.84766,-0.0449 2.72523,-1.17483 4.48044,-3.20459 5.60547,-5.07031 0.84991,-1.40948 1.25965,-2.75666 1.68164,-4.09766 4.15053,-0.30107 8.2799,-0.7352 12.35937,-1.41992 l 1.65235,-0.27735 1.33984,-1.0039 c 2.27823,-1.70575 3.03552,-3.44731 3.66797,-5.11914 0.63245,-1.67184 0.98295,-3.34485 0.94922,-5.30078 -0.0337,-1.95594 -0.2808,-4.66677 -3.02735,-7.11524 -2.00007,-1.783 -4.88087,-2.17264 -7.25781,-1.85547 l 0.1836,-0.83593 -2.83203,-2.6836 c -3.78382,-3.58596 -8.06532,-3.17674 -10.0625,-3.1875 -0.98169,-0.005 -1.44099,-0.0796 -1.58985,-0.084 -2.52059,-2.45017 -5.538,-3.74987 -7.92187,-4.41211 -2.79928,-0.77764 -4.98489,-1.09834 -6.29493,-1.54492 -26.69602,-9.67154 -53.10531,-20.48615 -74.24609,-38 l 0.80469,0.78711 c -8.08671,-9.30385 -19.52089,-14.84347 -31.53143,-16.11964 l -0.10352,-0.0117 c -0.0542,-0.15392 -0.0989,-0.45198 -0.0137,-0.64453 l 1.38867,-3.14258 -1.66797,-3.00195 c -2.5717,-4.62697 -6.07232,-5.51799 -7.38476,-6.32422 -0.0217,-0.0133 10e-4,0.001 -0.0195,-0.0117 l 0.22461,-4.44141 -5.46875,-1.39648 c -20.17196,-5.15352 -41.53456,-8.92917 -62.36719,-11.52539 l -0.14063,-0.0176 -0.14062,-0.0117 c -14.77242,-1.22767 -31.42658,-4.82181 -48.6836,0.0781 l -0.0625,0.0195 -0.0645,0.0176 c -1.12277,0.34207 -0.8193,0.3568 -2.21094,-0.91797 -1.39163,-1.27477 -3.16347,-3.90368 -4.96484,-6.54297 l -2.26758,-3.32031 -4.00781,0.33594 c -21.7627,1.82316 -40.70136,9.95152 -59.09961,8.8789 l -0.70313,-0.041 -0.69726,0.10156 c -4.59539,0.67206 -9.39636,-1.95695 -12.74024,-6.38671 l -1.66211,-2.20313 -2.7207,-0.44922 c -8.27049,-1.36555 -16.48128,-1.5896 -23.6875,-2.7207 l -0.0391,-0.006 -0.0391,-0.006 c -17.06924,-2.48112 -34.39439,-4.65684 -43.25586,-16.37305 0.21865,-0.13146 0.42782,-0.28459 0.46484,-0.30859 18.92959,1.8165 37.93815,8.29563 57.83008,13.11133 1.29618,0.7019 2.69454,1.25783 4.14063,1.35937 2.21876,0.1558 4.07545,-0.45383 5.38281,-1.05664 2.0828,-0.96035 2.75126,-1.5673 3.27148,-1.95312 9.67172,-1.66851 20.83096,-0.539 32.82031,-1.59571 l -0.61523,0.0273 c 15.74257,0.0217 29.63483,-4.66024 42.70703,-6.04101 3.45082,0.34416 6.5753,-0.66957 8.53516,-1.62891 1.99899,-0.9785 2.97153,-1.51415 3.60547,-1.78906 15.44659,0.092 31.48735,2.90666 48.10937,4.37109 l -0.0605,-0.004 c 26.44761,2.56351 52.78153,3.12318 75.6621,13.02735 l -0.96093,-0.50977 c 6.18018,3.92907 13.46064,5.26999 20.57812,4.32617 3.28488,0.90744 7.95744,5.23121 14.73828,9.19531 l -0.59765,-0.39257 c 25.16278,18.45382 53.42006,29.59502 78.41601,44.58203 l 0.32031,0.19336 0.3418,0.15625 c 4.09885,1.88741 9.40979,7.79051 18.43555,9.74804 l 2.15039,0.46485 0.69531,-0.29688 c 0.8934,1.1938 2.09506,3.66501 5.79102,6.11914 l 3.23437,2.14844 1.92188,-0.90234 0.2207,0.16992 c 2.22106,1.72038 6.07773,2.90082 9.2168,1.85937 3.13907,-1.04145 4.56439,-3.0161 5.53711,-4.40039 0.97272,-1.38428 1.56566,-2.55399 2.00781,-3.30468 0.44214,-0.7507 0.8738,-0.99496 0.0625,-0.35938 l 2.75977,-2.16202 -0.11914,-3.50391 c -0.16525,-4.85396 -3.58732,-8.0042 -5.58984,-9.49219 -2.00252,-1.48798 -3.28413,-2.47276 -3.08008,-2.22265 l -0.61133,-0.75 -0.79492,-0.55274 c -0.3544,-0.24645 -0.97206,-1.42986 -2.11523,-4.6914 -0.57159,-1.63078 -1.27898,-3.65722 -2.75977,-5.80274 -1.06557,-1.54391 -2.77772,-2.95204 -4.72265,-4.09961 -25.84225,-26.96497 -42.37912,-61.87938 -55.81836,-97.49804 l -0.0918,-0.24219 -0.10938,-0.23437 c -7.1412,-15.33698 -5.4693,-34.8374 -12.12304,-54.71875 l -0.65235,-1.95313 -1.19726,-0.94336 c 0.19293,-0.54423 0.93442,-1.57794 1.30078,-1.8125 l 4.64844,-2.97656 -1.88281,-5.18945 c -4.54562,-12.52115 -9.94793,-25.15643 -15.15235,-37.36328 l 0.26563,0.73437 c -1.79348,-6.01621 -5.03853,-10.55244 -6.89844,-14.39258 -1.85991,-3.84014 -2.42083,-6.01581 -1.41602,-8.71679 l 0.87696,-2.35743 -0.84375,-2.36718 c -6.96397,-19.52549 -15.8804,-38.65254 -24.33789,-57.28907 l 0.17187,0.41602 c -2.76043,-7.31707 -6.77954,-13.63435 -9.53516,-19.53711 -2.75561,-5.90276 -4.22414,-10.98885 -3.33203,-16.30273 l 0.36524,-2.16993 -0.96094,-1.98047 c -9.17103,-18.93405 -19.65376,-37.1852 -27.68555,-55.88476 -7.87103,-22.77849 -14.67402,-45.99318 -19.61523,-69.47656 -2.2741,-12.39194 -4.06428,-24.80137 -0.33789,-34.62305 6.95167,23.86628 11.8999,48.70067 18.76172,73.39453 -0.057,-0.22247 0.13245,2.33266 1.47851,5.32227 0.67303,1.4948 2.04658,4.44755 6.26563,5.18164 0.43992,0.0765 0.84485,-0.0374 1.27734,-0.041 0.11111,0.50161 0.40015,1.14357 0.60742,1.72266 5.04539,25.03513 19.51571,45.51627 33.72266,64.07617 l 2.90234,3.79297 4.57227,-1.38086 c 0.73611,-0.22247 0.98076,-0.18772 2.08398,0.63476 1.07659,0.80264 2.36251,2.50739 3.0586,4.03711 8.49091,27.55856 18.65386,54.26663 26.42968,81.3418 l 3.9375,13.70508 8.30469,-11.58984 c 0.28862,-0.40279 1.1558,-0.40997 1.45703,0.006 2.53761,10.75386 5.19817,21.80591 9.19336,32.66211 l 0.0781,0.2168 0.0937,0.21094 c 4.37545,9.81244 3.2137,23.25666 8.92968,37.29297 l 0.69727,1.71289 1.46094,1.13476 c 2.11099,1.63974 4.78787,2.08624 6.60156,1.99024 0.47071,-0.0249 0.6506,-0.15092 1.05078,-0.21094 0.83593,5.32979 1.66584,10.65688 2.53125,16.00586 l 0.0176,0.11133 0.0215,0.11133 c 4.01615,20.52998 5.03667,42.96745 13.13282,64.59765 l 13.11914,-4.23633 c -7.82725,-28.65454 -8.85021,-59.46744 -0.0215,-87.53515 l 0.0234,-0.0762 0.0234,-0.0781 c 5.67121,-19.62162 17.59773,-37.37887 34.42773,-48.5293 13.4194,-8.21993 26.25683,-16.62441 39.97852,-20.93945 7.68292,-1.31104 13.35639,-3.20949 17.55469,-2.02344 l 0.58203,0.16602 0.60156,0.0605 c 13.43168,1.35291 26.21599,8.43363 38.94336,16.32226 l 0.21289,0.13086 0.2207,0.11523 c 15.07604,7.89992 28.05533,19.61896 36.01172,34.31641 l 0.008,0.0117 0.006,0.0137 c 17.73149,32.42268 18.10099,72.38668 8.4961,108.3457 l 12.98632,4.54883 c 0.14046,-0.32073 0.19868,-0.66812 0.33204,-0.99218 l 0.0137,0.006 c 0.0137,-0.0513 0.0215,-0.10494 0.0352,-0.15624 2.43976,-5.98411 3.80207,-12.45588 5.01563,-18.01954 l 0.0156,-0.0703 0.0137,-0.0703 c 3.99397,-20.36449 7.39626,-41.16127 9.9707,-61.80469 l 0.0859,-0.69726 -0.0293,-0.36524 c 0.12478,-0.0278 0.26299,-0.0707 0.35156,-0.0273 l 6.56055,3.21484 2.83398,-6.73242 c 1.71099,-4.06385 2.98018,-8.33325 4.00586,-12.39649 l 0.12891,-0.50976 0.0508,-0.52148 c 0.90472,-9.43003 2.81504,-18.91817 6.25195,-27.5254 l -0.1289,0.29883 c 4.95005,-10.87522 5.69127,-21.54789 8.66797,-30.07617 l 0.084,-0.23828 c 0.44606,0.005 1.28853,0.32527 1.44727,0.50976 l 8.30468,9.65235 3.55274,-12.22852 c 6.5023,-22.38978 15.07005,-45.04389 22.29883,-68.09179 l 0.006,-0.0176 c 1.50109,-4.60274 2.55417,-9.35291 4.08398,-12.67969 1.4439,-3.13994 2.56329,-4.451 4.75781,-5.05078 1.93351,0.0174 3.85889,-0.23421 5.42383,-1.01367 2.31434,-1.15273 3.79785,-2.75786 4.89844,-4.15821 2.20117,-2.80069 3.46422,-5.24494 3.90432,-5.74023 l 0.1347,-0.15234 0.127,-0.16016 c 12.9405,-16.42021 23.3554,-35.46303 27.6211,-56.91211 l 5.3105,3.78906 2.5938,-9.57422 c 5.8665,-21.65545 11.4948,-43.69301 16.5996,-65.6914 l -0.1621,0.57617 c 1.4291,-4.38983 1.9364,-8.55158 2.8945,-11.3125 0.4072,-1.1734 0.6941,-1.78629 1.0137,-2.31055 z M 560.59711,219.5742 c -0.10621,0.13906 -0.27282,0.25139 -0.37891,0.39453 l 0.19531,-0.25195 c -0.0107,0.0131 0.17025,-0.12459 0.1836,-0.14258 z m 125.06445,481.96875 c 0.0811,0.0589 0.0247,0.0305 0.17383,0.1582 l 0.92773,0.96485 c -0.33971,-0.4303 -0.73311,-0.74962 -1.10156,-1.12305 z m 12.26758,6.95898 c 0.22985,-0.0757 -0.15116,-0.13179 0.0957,0.0312 -0.21108,0.0699 -0.47441,0.102 -0.66406,0.1836 z M 891.2475,722.2656 c 0.0924,0.0107 0.674,0.0548 0.91211,0.0918 -0.77333,0.14603 -1.07201,-0.11024 -0.91211,-0.0918 z m -212.46094,4.23829 0.2539,0.0996 c -0.10269,-0.0434 -0.20758,-0.0509 -0.31054,-0.0918 -0.004,-0.002 0.0635,-0.005 0.0566,-0.008 z m 5.30664,65.27344 c 0.18421,0.0292 0.59751,0.10542 0.66797,0.11914 0.11778,0.0229 -0.13023,0.10853 -0.66797,-0.11914 z m 246.0625,0.48047 0.006,0.0137 c -10e-4,-0.003 -0.005,-0.005 -0.006,-0.008 -6.7e-4,-0.002 6.7e-4,-0.004 0,-0.006 z m -72.16406,35.21875 -2.99805,1.52734 c -2.45364,1.25053 -3.1283,2.79424 -3.60156,3.74023 -0.47327,0.94599 -0.67748,1.62355 -0.85352,2.19141 -0.35207,1.13571 -0.73271,2.02118 -0.34961,1.28125 l -0.0332,0.0625 -0.0312,0.0644 c -6.02498,12.24884 -6.34564,23.86656 -11.94531,30.53516 l -5.23829,6.23828 7.01368,4.14063 c 3.73364,2.20493 8.1987,5.14219 11.86328,7.93945 l 8.82226,6.73437 2.13672,-10.89062 c 1.91216,-9.74673 2.76388,-21.4312 3.94922,-31.21484 l 0.0977,-0.80079 -0.0899,-0.80273 c 0.004,0.0389 0.50478,-2.65957 0.88868,-6.21875 0.19194,-1.77959 0.32557,-3.98615 -0.58204,-6.58399 -0.9076,-2.59783 -3.26942,-5.24932 -5.99804,-6.52148 z m -121.82032,1.09961 c -1.5446,0.0898 -2.46955,0.51748 -3.13086,0.83789 -1.3226,0.64081 -1.8187,1.09925 -2.13671,1.31835 -0.31802,0.21911 -0.42099,0.14303 0.45117,-0.14257 l -5.3125,1.73828 0.59961,5.55859 c 1.47111,13.64777 2.52551,27.78957 4.82031,41.93946 l 0.3457,2.13476 1.50391,1.55469 c 1.24916,1.2925 3.27176,2.21971 4.93945,2.37695 1.66769,0.15724 2.90466,-0.1914 3.82422,-0.53125 1.83912,-0.6797 2.77247,-1.44713 3.65039,-2.10937 1.75585,-1.32449 3.5085,-2.50922 2.71875,-2.14258 l 1.4082,-0.6543 0.99219,-1.19336 c -0.86163,1.03696 -0.87438,0.74533 -0.38867,0.50391 0.48571,-0.24142 1.34162,-0.57507 2.55469,-1.27344 1.21306,-0.69837 4.04091,-1.92296 4.55078,-6.41211 0.25494,-2.24457 -0.64945,-4.40686 -1.56055,-5.63867 -0.27718,-0.37475 -0.54558,-0.47977 -0.82031,-0.76563 -4.50609,-8.44574 -6.69379,-19.16201 -10.97266,-30.17382 -0.11425,-1.4601 -0.40335,-3.1678 -2.72851,-5.15039 -1.47452,-1.25728 -3.76399,-1.86521 -5.3086,-1.77539 z m 8.2168,8.60546 -3.87305,0.74414 c -0.0214,-0.20274 -0.0409,-0.4027 -0.0625,-0.60546 z m -4.63281,0.16211 -0.53711,0.83008 -7.62891,1.4668 c -0.89395,-1.23502 -0.99338,-2.10498 -0.98437,-1.97656 z m 161.78711,6.125 c 0.0148,0.17657 0.0877,0.63734 -0.0352,1.34961 0.003,-0.25741 0.058,-0.49973 0.0586,-0.75781 l 0.002,-0.29687 z m -10.66602,5.49805 c -0.0603,-0.10284 0.26521,-0.0433 0.40625,0.10547 0.0247,0.0261 0.0874,0.0988 0.11524,0.12891 -0.0855,-0.0534 -0.50505,-0.20634 -0.52149,-0.23438 z m 447.5351,213.63282 c -0.089,0.3952 0,0.4414 -0.043,0.418 z"
   id="path2-3-6"
   inkscape:connector-curvature="0" /></svg>